<svg xmlns="http://www.w3.org/2000/svg" width="159.178" height="34.355" viewBox="0 0 159.178 34.355">
  <g id="usc-white" transform="translate(-7.203 -3.408)">
    <path id="Path_1" data-name="Path 1" d="M16.872,25.423H15.5c-.162,0-.3-.007-.341-.191a.23.23,0,0,1,.174-.288.232.232,0,0,0-.031.23c.039.1.122.085.257.085l1.539,0c0,.149-.222.165-.222.165" transform="translate(-1.275 -3.456)"/>
    <path id="Path_2" data-name="Path 2" d="M16.58,32.572h-.67c-.114,0-.217-.023-.259-.149-.05-.151.118-.186.118-.186s-.034.059,0,.135.091.066.186.067l.784,0c0,.129-.157.129-.157.129" transform="translate(-1.354 -4.626)"/>
    <path id="Path_3" data-name="Path 3" d="M16.939,24.885l-1.857,0a.354.354,0,0,1-.336-.379.359.359,0,0,1,.335-.378l1.858,0a.381.381,0,0,1,0,.756m-.452.464h-.951a.508.508,0,0,1-.4-.2l1.752,0a.5.5,0,0,1-.4.2m-.666.292a4.558,4.558,0,0,0,.74-.029l-.2,4.351-.466,0Zm-.377-.031s.068.01.18.018l.162,4.335h-.125Zm1.4,4.944a.33.33,0,0,1-.326.327l-1,0a.327.327,0,1,1,0-.653h1a.326.326,0,0,1,.327.325m-.612,2.371a.208.208,0,0,1-.212.215.215.215,0,0,1-.213-.213L15.72,31.15h.111l.063,1.717c0,.13.06.156.06.156l-.034-1.873h.392Zm-1.647-9.687a1.431,1.431,0,0,1,.2-.634,1.356,1.356,0,0,0,.195-.879,1.259,1.259,0,0,1,.434.278c-.09.109-.19.215-.243.281a1.208,1.208,0,0,0-.119,1.586h-.058a.658.658,0,0,1-.4-.632m1.34-1.983a1.922,1.922,0,0,1,.757,1.381,2.063,2.063,0,0,1-.568,1.227,1.06,1.06,0,0,1-.2-.6,1.15,1.15,0,0,1,.215-.7.894.894,0,0,0-.365.614,1.209,1.209,0,0,0,.156.684h-.193a.967.967,0,0,1-.114-1.075c.052-.086.286-.424.315-.493a.416.416,0,0,0,.032-.162,1.213,1.213,0,0,1-.106.139c-.067.074-.3.311-.368.4a1.019,1.019,0,0,0,.008,1.193h-.181a.976.976,0,0,1-.244-.782c.044-.747.945-.84.856-1.827m1.244.634a2.224,2.224,0,0,0,.1,1.093.736.736,0,0,1-.367.884l-.013,0-.432,0a2.179,2.179,0,0,0,.486-1.227,1.817,1.817,0,0,0-.038-.358l-.035-.12a1.406,1.406,0,0,1,.295-.27m.077,2.075a1,1,0,0,0,.293-1.065l-.006-.016a1.917,1.917,0,0,1-.033-1.189l.066-.207-.214.028a1.089,1.089,0,0,0-.59.352,2.714,2.714,0,0,0-1.248-1.154c.186.591.211.808.058,1.061a1.563,1.563,0,0,0-.785-.385l-.243-.035.1.226a.961.961,0,0,1-.11.9,1.684,1.684,0,0,0-.224.757.939.939,0,0,0,.389.782.655.655,0,0,0-.217.489.646.646,0,0,0,.319.57.778.778,0,0,0,.375.447l.221,4.45a.593.593,0,0,0,.058,1.169l.089,1.783a.479.479,0,0,0,.959.005l.08-1.79a.593.593,0,0,0,.052-1.171l.2-4.44a.77.77,0,0,0,.393-.462.656.656,0,0,0,.022-1.109" transform="translate(-1.14 -2.777)"/>
    <path id="Path_4" data-name="Path 4" d="M30.1,25.423H28.728c-.161,0-.3-.007-.34-.191a.231.231,0,0,1,.175-.288.234.234,0,0,0-.031.23c.04.1.121.085.257.085l1.539,0c0,.149-.222.165-.222.165" transform="translate(-3.398 -3.456)"/>
    <path id="Path_5" data-name="Path 5" d="M29.812,32.572h-.669c-.114,0-.217-.023-.259-.149-.05-.151.118-.186.118-.186s-.035.059,0,.135.092.066.186.067l.784,0c0,.129-.157.129-.157.129" transform="translate(-3.477 -4.626)"/>
    <path id="Path_6" data-name="Path 6" d="M30.171,24.885l-1.858,0a.354.354,0,0,1-.335-.379.358.358,0,0,1,.334-.378l1.857,0a.381.381,0,0,1,0,.756m-.451.464h-.952a.5.5,0,0,1-.4-.2l1.752,0a.507.507,0,0,1-.4.2m-.666.292a4.551,4.551,0,0,0,.74-.029l-.2,4.351-.466,0Zm-.377-.031s.068.01.181.018l.161,4.335h-.125Zm1.4,4.944a.33.33,0,0,1-.326.327l-1,0a.327.327,0,1,1,0-.653h1a.325.325,0,0,1,.326.325m-.611,2.371a.209.209,0,0,1-.212.215.215.215,0,0,1-.213-.213l-.088-1.776h.111l.063,1.717c0,.13.06.156.06.156l-.034-1.873h.392Zm-1.647-9.687a1.421,1.421,0,0,1,.2-.634,1.351,1.351,0,0,0,.194-.879,1.251,1.251,0,0,1,.434.278c-.089.108-.188.215-.243.281a1.21,1.21,0,0,0-.118,1.586h-.058a.656.656,0,0,1-.4-.632m1.338-1.983a1.914,1.914,0,0,1,.757,1.381,2.053,2.053,0,0,1-.568,1.227,1.06,1.06,0,0,1-.2-.6,1.147,1.147,0,0,1,.216-.7.893.893,0,0,0-.366.614,1.209,1.209,0,0,0,.156.684h-.193a.969.969,0,0,1-.114-1.075c.052-.086.285-.424.315-.493a.392.392,0,0,0,.033-.162,1.213,1.213,0,0,1-.106.139c-.067.074-.3.311-.368.4a1.015,1.015,0,0,0,.009,1.193h-.181a.973.973,0,0,1-.245-.782c.044-.747.945-.84.855-1.827m1.247.634a2.21,2.21,0,0,0,.1,1.093.737.737,0,0,1-.367.884l-.013,0-.432,0a2.178,2.178,0,0,0,.485-1.227,1.756,1.756,0,0,0-.037-.358l-.036-.12a1.388,1.388,0,0,1,.3-.27m.076,2.075a1,1,0,0,0,.294-1.065l-.007-.016a1.914,1.914,0,0,1-.032-1.189l.066-.207-.215.028a1.089,1.089,0,0,0-.59.352,2.708,2.708,0,0,0-1.248-1.154c.186.591.211.808.058,1.061a1.564,1.564,0,0,0-.786-.385l-.243-.035.1.226a.961.961,0,0,1-.11.9,1.684,1.684,0,0,0-.225.757.942.942,0,0,0,.39.782.658.658,0,0,0-.217.489.646.646,0,0,0,.319.57.781.781,0,0,0,.375.447l.22,4.45a.593.593,0,0,0,.057,1.169l.09,1.783a.477.477,0,0,0,.479.477.472.472,0,0,0,.479-.472l.08-1.79a.593.593,0,0,0,.053-1.171l.2-4.44a.769.769,0,0,0,.394-.462.657.657,0,0,0,.023-1.109" transform="translate(-3.263 -2.777)"/>
    <path id="Path_7" data-name="Path 7" d="M23.85,25.611l-2.453,0a.578.578,0,1,1,0-1.157l2.453,0a.615.615,0,0,1,.126.014l0,.006.007,0a.579.579,0,0,1-.133,1.142m-.492.626-1.5,0a.579.579,0,0,1-.532-.35c.023,0,.044,0,.066,0l2.455,0c.029,0,.055,0,.083,0a.638.638,0,0,1-.577.352m-.182,6.434h-.713l-.076-6.156.971,0a.837.837,0,0,0,.1-.007Zm.66.755a.482.482,0,0,1-.479.482l-1.426,0a.479.479,0,0,1,0-.959l1.426,0a.48.48,0,0,1,.481.478m-.845,3.27a.364.364,0,0,1-.364.365.369.369,0,0,1-.367-.373l-.115-2.5h.226l.095,2.445c0,.181.083.217.083.217l-.042-2.661h.6Zm-.929-10.18.258,6.156h-.244l-.282-6.159.071,0ZM20.6,23.286a2.005,2.005,0,0,1,.277-.9,1.742,1.742,0,0,0,.245-1.277,1.783,1.783,0,0,1,.743.457c-.06.075-.128.149-.2.226-.054.06-.11.119-.169.186a1.752,1.752,0,0,0-.221,2.212.886.886,0,0,0-.094.018.964.964,0,0,1-.583-.921m1.8-2.108a1.5,1.5,0,0,0,.035-.723,2.672,2.672,0,0,1,1.164,1.9,2.743,2.743,0,0,1-.8,1.818h-.039a1.46,1.46,0,0,1-.271-.823,1.594,1.594,0,0,1,.3-.971,1.245,1.245,0,0,0-.506.851,1.672,1.672,0,0,0,.213.943h-.269a1.332,1.332,0,0,1-.154-1.482c.071-.121.395-.589.437-.684a.557.557,0,0,0,.044-.226,1.6,1.6,0,0,1-.146.193c-.092.1-.41.432-.51.552a1.406,1.406,0,0,0,.009,1.648h-.3a1.464,1.464,0,0,1,.086-2.006l.01-.01c.057-.065.112-.125.165-.182a2.219,2.219,0,0,0,.531-.8m1.907.132a2.976,2.976,0,0,0,.121,1.606,1.067,1.067,0,0,1-.492,1.264.6.6,0,0,0-.087,0h-.672a2.892,2.892,0,0,0,.7-1.82,1.98,1.98,0,0,0-.1-.6,1.886,1.886,0,0,1,.529-.446m-.044,2.971a1.317,1.317,0,0,0,.43-1.45l-.006-.015a2.7,2.7,0,0,1-.046-1.685l.065-.207-.214.027a1.538,1.538,0,0,0-.829.517,3.874,3.874,0,0,0-1.381-1.458l-.333-.2.133.364a1.59,1.59,0,0,1,.057.908,1.516,1.516,0,0,1-.113.249,2.1,2.1,0,0,0-1.1-.559l-.243-.034.1.226a1.373,1.373,0,0,1-.152,1.3,2.234,2.234,0,0,0-.3,1.024,1.255,1.255,0,0,0,.554,1.07.855.855,0,0,0,.144,1.446.856.856,0,0,0,.493.637l.286,6.245a.757.757,0,0,0,.069,1.5l.115,2.512a.644.644,0,0,0,1.288.005l.116-2.517a.757.757,0,0,0,.071-1.508l.287-6.246a.857.857,0,0,0,.508-.641.857.857,0,0,0,.012-1.509" transform="translate(-2.105 -2.632)"/>
    <path id="Path_8" data-name="Path 8" d="M21.4,25.972a.381.381,0,0,1,.05-.369.343.343,0,0,0-.262.447c.064.3.269.327.531.326l2.221,0a.36.36,0,0,0,.358-.222l-2.484,0c-.218,0-.349-.023-.414-.183" transform="translate(-2.242 -3.561)"/>
    <path id="Path_9" data-name="Path 9" d="M22.065,35.994A.3.3,0,0,1,22.1,35.7a.27.27,0,0,0-.207.352c.051.233.212.259.42.257l1.211,0a.281.281,0,0,0,.281-.173l-1.417,0c-.173,0-.276-.018-.327-.144" transform="translate(-2.356 -5.182)"/>
    <path id="Path_10" data-name="Path 10" d="M30.865,24.462c-1.619,3.948-4.717,9.351-10.3,12.757-5.6-3.39-8.711-8.787-10.338-12.731a34.711,34.711,0,0,1-2.185-7.623,4.131,4.131,0,0,1,2.089-.558h.006a7.262,7.262,0,0,1,1.7.221l.259.076c.217.063.442.129.672.194h0a10.138,10.138,0,0,0,2.472.478h0a10.464,10.464,0,0,0,3.41-.593,6.732,6.732,0,0,1,1.369-.356l.457-.034H20.5l.705.063a7.369,7.369,0,0,1,1.171.322,10.406,10.406,0,0,0,3.405.585h.008a8.047,8.047,0,0,0,1.957-.339h0c.358-.1.718-.2,1.06-.3l.385-.112a7.5,7.5,0,0,1,1.733-.227h0a4.324,4.324,0,0,1,2.1.54,34.682,34.682,0,0,1-2.169,7.642M15.509,13.438a5.459,5.459,0,0,0-.358,1.363,10.664,10.664,0,0,1-2.223-.457L12,14.075a7.684,7.684,0,0,0-1.833-.239h-.007a5.757,5.757,0,0,0-2.417.545c-.033-.457-.06-.972-.071-1.535ZM7.691,10.991l8.144,1.782c-.072.124-.139.252-.2.384L7.665,12.091c0-.353.012-.723.026-1.1m.281-2.975,8.458,3.917a5.768,5.768,0,0,0-.447.589L7.734,10.209c.047-.7.125-1.439.238-2.194m.222-1.268A17.216,17.216,0,0,0,10,7.031l6.87,4.445c-.092.084-.183.168-.269.259L8.113,7.189c.027-.147.051-.293.081-.442m3.655.382a13.541,13.541,0,0,0,2.491-.22l3.466,3.883a5.366,5.366,0,0,0-.742.519L11.341,7.124c.169,0,.336.007.509.006m4.424-.746,2.3,4.039c-.155.059-.308.127-.457.2L15.192,6.716c.379-.1.74-.213,1.081-.332m3.041-1.468.7,5.169a5.422,5.422,0,0,0-1.12.23L16.966,6.124a14.339,14.339,0,0,0,2.348-1.207m1.206-.882q.258.215.521.411l-.311,5.627c-.065,0-.13-.01-.2-.01h-.007c-.069,0-.136.007-.2.01l-.312-5.635c.225-.166.4-.307.508-.4m1.2.882a13.924,13.924,0,0,0,2.332,1.206l-1.925,4.186a5.282,5.282,0,0,0-1.106-.223Zm3.024,1.465c.492.169.876.273,1.087.323l-2.926,3.911c-.149-.074-.3-.139-.458-.2Zm1.956.5a15.4,15.4,0,0,0,2.657.227c.11,0,.214,0,.32-.007l-5.726,4.192a5.484,5.484,0,0,0-.735-.509Zm4.3.142a14.018,14.018,0,0,0,1.84-.3c.032.148.056.3.084.443L24.42,11.72c-.087-.091-.177-.177-.27-.261Zm2.068.969c.118.772.2,1.523.248,2.241l-8.243,2.31a5.342,5.342,0,0,0-.479-.625Zm.316,4.11-7.966,1.065q-.092-.191-.2-.375l8.137-1.782c.015.376.026.743.026,1.093m-5.664,2.59-.06-.224a8.45,8.45,0,0,1-1.755.321,5.38,5.38,0,0,0-.36-1.345l7.835-.59c-.012.54-.035,1.034-.066,1.477a5.673,5.673,0,0,0-2.352-.52h0a7.9,7.9,0,0,0-1.86.243l-.358.106c-.348.1-.715.212-1.08.309Zm-7.175-.871,0,.036v-.036a4.54,4.54,0,0,0-.547.038h0a7.119,7.119,0,0,0-1.469.379,9.984,9.984,0,0,1-2.912.559,4.936,4.936,0,0,1,4.906-4.271h.007a4.983,4.983,0,0,1,4.908,4.256,10,10,0,0,1-2.872-.551,7.9,7.9,0,0,0-1.252-.343l0,.017,0-.017a4.756,4.756,0,0,0-.767-.068m-5.277,1.449h0a10.38,10.38,0,0,0,2.207-.253,10.672,10.672,0,0,0,1.2-.342,6.732,6.732,0,0,1,1.373-.356l.488-.033.7.061a7.391,7.391,0,0,1,1.173.323,10.53,10.53,0,0,0,1.459.394,10.336,10.336,0,0,0,1.944.191h.008a7.85,7.85,0,0,0,1.957-.34c.368-.1.739-.207,1.091-.312l.356-.1a7.554,7.554,0,0,1,1.729-.225h0a5.16,5.16,0,0,1,2.312.561q-.024.278-.05.517a5.137,5.137,0,0,0-2.3-.543h-.006a7.9,7.9,0,0,0-1.861.244l-.383.112c-.34.1-.7.207-1.053.3a8.7,8.7,0,0,1-1.85.325,9.94,9.94,0,0,1-3.247-.559c-.165-.058-.355-.121-.561-.181a6.324,6.324,0,0,0-.692-.163,4.623,4.623,0,0,0-.768-.067,3.974,3.974,0,0,0-.546.038h0a5.678,5.678,0,0,0-.821.171c-.231.065-.45.137-.649.207a9.921,9.921,0,0,1-3.257.567h0a9.909,9.909,0,0,1-2.345-.46l-.928-.269a7.618,7.618,0,0,0-1.829-.239h-.01a5.141,5.141,0,0,0-2.29.542c-.016-.152-.033-.317-.049-.494a5.23,5.23,0,0,1,2.378-.583h0a7.232,7.232,0,0,1,1.7.222l.929.27.064-.223-.064.223a10.074,10.074,0,0,0,2.475.477M27.69,16.7l-.061-.224a7.533,7.533,0,0,1-1.838.324h-.007a9.912,9.912,0,0,1-3.252-.56A7.8,7.8,0,0,0,21.28,15.9a4.248,4.248,0,0,0-1.316-.032,7.074,7.074,0,0,0-1.468.38,10,10,0,0,1-3.257.566h0a9.71,9.71,0,0,1-2.342-.461l-.065.224.063-.224c-.227-.064-.452-.13-.667-.193l-.26-.076a7.644,7.644,0,0,0-1.831-.239h-.007a4.545,4.545,0,0,0-2.164.531c-.018-.116-.042-.284-.069-.494a4.666,4.666,0,0,1,2.232-.578h.01a7.234,7.234,0,0,1,1.7.221l.929.27.065-.223-.064.223a10.032,10.032,0,0,0,2.472.479h.005a10.394,10.394,0,0,0,3.409-.6,6.755,6.755,0,0,1,1.372-.354l.454-.034H20.5l.7.061a7.538,7.538,0,0,1,1.173.322,10.425,10.425,0,0,0,3.4.586h.012a7.927,7.927,0,0,0,1.959-.339c.358-.1.719-.2,1.065-.3L29.2,15.5a7.455,7.455,0,0,1,1.731-.225h.006a4.688,4.688,0,0,1,2.241.575c-.025.2-.048.361-.065.477a4.75,4.75,0,0,0-2.175-.511h0a7.989,7.989,0,0,0-1.862.244l-.386.114c-.338.1-.7.207-1.049.3Zm6.135-5.791-.044-.8c-.054-.742-.142-1.521-.268-2.315l-.09-.541c-.051-.286-.107-.574-.171-.864L33.2,6.142l-.238.07a10.387,10.387,0,0,1-1.039.219l-1.571.179c-.311.019-.642.033-.992.034a14.99,14.99,0,0,1-2.671-.238l-.551-.11-.03-.005a11.369,11.369,0,0,1-1.126-.326l-.732-.273A13.41,13.41,0,0,1,21.79,4.4l-.719-.523c-.134-.107-.268-.216-.4-.332l-.16-.139-.153.145c-.005,0-.134.126-.378.317l-.735.53a14.086,14.086,0,0,1-2.474,1.3l-.732.274c-.353.121-.725.236-1.117.335l-.03.007-.636.139a13.3,13.3,0,0,1-2.407.213c-.417,0-.816-.016-1.189-.044L9.089,6.44c-.622-.1-1.006-.2-1.013-.2l-.233-.059-.052.235c-.05.232-.092.462-.136.693l-.12.7c-.122.779-.207,1.541-.258,2.269l-.046.808q-.025.591-.027,1.139l.006.783a26.79,26.79,0,0,0,.327,3.839,34.409,34.409,0,0,0,2.251,8c1.656,4.01,4.823,9.5,10.527,12.959l.248.149.247-.149C26.5,34.139,29.656,28.64,31.3,24.626a34.278,34.278,0,0,0,2.23-8.007,27.05,27.05,0,0,0,.319-3.8l0-.777c0-.365-.011-.741-.028-1.133"/>
    <g id="Group_1" data-name="Group 1" transform="translate(37.239 5.954)">
      <path id="Path_11" data-name="Path 11" d="M44.513,8.258c0-.591-.139-.87-.592-.87h-.8c-.1,0-.14-.035-.14-.158v-.4c0-.1.035-.139.174-.139.175,0,1.01.052,2.682.052,1.462,0,2.3-.052,2.507-.052.1,0,.139.035.139.123v.435c0,.1-.034.139-.139.139h-.731a.766.766,0,0,0-.853.678c-.018.21-.052,1.254-.052,2.263v2.16c0,.87.018,2.106.052,2.664a4.081,4.081,0,0,0,.61,2.159,2.879,2.879,0,0,0,2.368,1.079,3.68,3.68,0,0,0,2.332-.835,4.04,4.04,0,0,0,1.011-2.943V11.48a32.193,32.193,0,0,0-.192-3.326.763.763,0,0,0-.714-.766h-.627c-.1,0-.139-.053-.139-.123V6.83c0-.1.035-.139.139-.139.175,0,.976.052,2.125.052,1.08,0,1.636-.052,1.776-.052.157,0,.175.052.175.139v.4c0,.1-.018.158-.1.158H54.89a.69.69,0,0,0-.732.678c-.034.21-.034,2.646-.034,2.874s-.035,3.273-.1,3.969a4.611,4.611,0,0,1-1.463,3.342,4.7,4.7,0,0,1-3.169,1.079,7.141,7.141,0,0,1-2.507-.417,3.548,3.548,0,0,1-2.055-2.332,15.538,15.538,0,0,1-.312-4.2V8.258Z" transform="translate(-42.98 -6.481)" fill="#9a211d"/>
      <path id="Path_12" data-name="Path 12" d="M58.467,15.147c.069,0,.1.035.1.139a4.04,4.04,0,0,0,.662,1.986,2.707,2.707,0,0,0,2.3,1.252,2.128,2.128,0,0,0,2.263-2.037c0-1.6-.73-2.125-2.577-2.82a8.267,8.267,0,0,1-2.542-1.462,3.317,3.317,0,0,1-.871-2.49,2.954,2.954,0,0,1,1.219-2.438A3.562,3.562,0,0,1,61.5,6.443a5.483,5.483,0,0,1,2.194.417.3.3,0,0,0,.366-.052l.226-.226a.317.317,0,0,1,.244-.1c.1,0,.139.1.139.278,0,.279.279,2.716.279,2.891,0,.069-.035.1-.1.122l-.278.087a.135.135,0,0,1-.175-.106,5.006,5.006,0,0,0-1.08-1.844,2.283,2.283,0,0,0-1.81-.731,1.858,1.858,0,0,0-1.95,1.758,2.118,2.118,0,0,0,.488,1.567,5.828,5.828,0,0,0,2.125,1.08,5.5,5.5,0,0,1,2.507,1.357,3.35,3.35,0,0,1,.871,2.492,3.628,3.628,0,0,1-3.691,3.864,4.543,4.543,0,0,1-2.96-.835c-.208-.139-.313-.209-.417-.209s-.175.139-.279.314-.173.21-.313.21-.209-.106-.209-.28c.035-.21.279-3.03.313-3.238.018-.1.036-.139.1-.139Z" transform="translate(-45.337 -6.441)" fill="#9a211d"/>
      <path id="Path_13" data-name="Path 13" d="M79.424,16.191a.135.135,0,0,1,.034.174A6.25,6.25,0,0,1,74.27,19.29a6.167,6.167,0,0,1-4.561-1.637,6.627,6.627,0,0,1-1.88-4.7A6.753,6.753,0,0,1,69.6,8.286a6.02,6.02,0,0,1,4.527-1.845,7.577,7.577,0,0,1,3.517.836c.243.139.313.139.348,0l.139-.453c.035-.1.07-.1.279-.1s.244.034.244.278c0,.314.348,3.1.417,3.62.018.106,0,.158-.07.175l-.332.1c-.086.034-.139-.036-.191-.175A6.186,6.186,0,0,0,77.125,8.46a4.152,4.152,0,0,0-3.031-1.289c-2.785,0-3.934,2.507-3.934,5.015a7.049,7.049,0,0,0,1.6,4.527,3.753,3.753,0,0,0,2.995,1.358,5.079,5.079,0,0,0,4.161-2.019c.086-.123.156-.174.209-.123Z" transform="translate(-46.967 -6.441)" fill="#9a211d"/>
      <path id="Path_14" data-name="Path 14" d="M87.356,18.965a3.171,3.171,0,0,1-2.072-2.334A18.234,18.234,0,0,1,85,12.4V8.257c0-.609-.122-.887-.662-.887h-.819c-.1,0-.122-.035-.122-.156V6.829c0-.1.018-.139.157-.139.175,0,1.028.052,2.386.052s2.194-.052,2.385-.052c.139,0,.156.035.156.1v.453c0,.086-.017.122-.139.122h-.87a.783.783,0,0,0-.836.714c-.018.157-.034,1.375-.034,2.264V11.5c0,.922.069,3.133.087,3.691a4.166,4.166,0,0,0,.557,2.211,3.242,3.242,0,0,0,2.768,1.254,3.712,3.712,0,0,0,2.612-.958,4.332,4.332,0,0,0,.906-3.064V10.9c0-1.324-.035-2.335-.087-2.769a.775.775,0,0,0-.783-.767H91.9c-.1,0-.123-.052-.123-.139V6.813c0-.087.018-.123.123-.123.175,0,.975.052,2.142.052,1.2,0,1.758-.052,1.915-.052s.174.071.174.123V7.2c0,.1-.018.174-.1.174h-.714c-.644,0-.7.489-.748.7-.036.174-.036,2.646-.036,2.891s-.034,3.292-.086,3.97a4.515,4.515,0,0,1-1.462,3.36,4.655,4.655,0,0,1-3.274,1.044,6.445,6.445,0,0,1-2.352-.365" transform="translate(-49.466 -6.481)"/>
      <path id="Path_15" data-name="Path 15" d="M104.566,19.068c0,.278.156.365.383.365h.557c.158,0,.192.052.192.156v.28c0,.121-.034.191-.139.191-.122,0-.661-.053-1.653-.053-.889,0-1.446.053-1.567.053-.1,0-.14-.053-.14-.191v-.28c0-.123.054-.156.227-.156h.505c.191,0,.33-.087.348-.4.017-.453.034-1.01.034-1.462v-2.3c0-.7,0-1.2-.5-1.567a1.912,1.912,0,0,0-1.272-.313,2.043,2.043,0,0,0-1.41.678,1.708,1.708,0,0,0-.4,1.183v3.6c0,.47.053.574.417.574h.435c.139,0,.175.052.175.173v.3c0,.1-.035.157-.123.157-.122,0-.592-.053-1.515-.053-.887,0-1.445.053-1.549.053-.087,0-.123-.053-.123-.157v-.313c0-.1.035-.156.174-.156h.505c.226,0,.348-.053.348-.349V15.01a1.075,1.075,0,0,0-.714-1.028l-.14-.069c-.122-.051-.139-.1-.139-.156V13.67c0-.086.07-.139.157-.174l1.5-.835a.942.942,0,0,1,.313-.123c.086,0,.121.07.139.209l.122,1.063h.034a3.5,3.5,0,0,1,2.386-1.272,2.687,2.687,0,0,1,1.479.383,2.543,2.543,0,0,1,.958,1.654v4.493Z" transform="translate(-51.719 -7.419)"/>
      <path id="Path_16" data-name="Path 16" d="M109.118,14.211c0-.59-.1-.9-.976-1.043-.122-.018-.157-.053-.157-.123v-.157c0-.054.035-.086.122-.122a14.3,14.3,0,0,0,1.881-.853.718.718,0,0,1,.331-.1c.087,0,.1.086.087.209-.034.3-.034,1.393-.034,2.838v1.9c0,.678,0,1.305.017,1.5.034.332.086.454.279.454h.8c.139,0,.173.052.173.156v.3c0,.123-.034.175-.155.175-.14,0-.94-.052-1.672-.052-1.01,0-1.689.052-1.88.052-.087,0-.139-.035-.139-.14v-.348c0-.1.052-.139.174-.139h.853c.192,0,.261-.07.28-.349.018-.523.018-1.061.018-1.583ZM108.334,8.9A.965.965,0,0,1,109.4,8a.864.864,0,0,1,.906.853.946.946,0,0,1-1.01.958.988.988,0,0,1-.958-.906" transform="translate(-53.38 -6.691)"/>
      <path id="Path_17" data-name="Path 17" d="M115.949,18.436H116c.28-.679,1.5-3.656,1.672-4.336.121-.469,0-.748-.313-.748h-.349c-.052,0-.07-.087-.07-.174v-.313c0-.1.035-.139.1-.139.244,0,.628.052,1.394.052.679,0,1.1-.052,1.253-.052.139,0,.157.018.157.155v.3c0,.121,0,.174-.086.174h-.331a.686.686,0,0,0-.54.193A17.937,17.937,0,0,0,117.5,16.33c-.209.521-1.5,3.447-1.567,3.569-.139.243-.227.4-.418.4-.173,0-.278-.157-.365-.365-.035-.087-1.305-3.4-1.358-3.535s-.766-2.124-.887-2.4c-.226-.5-.4-.644-.714-.644h-.348c-.087,0-.1-.071-.1-.174v-.313c0-.123.035-.139.192-.139.191,0,.486.052,1.462.052.923,0,1.376-.052,1.567-.052.139,0,.174.034.174.139v.313c0,.1-.018.174-.121.174h-.349a.3.3,0,0,0-.313.33,14.321,14.321,0,0,0,.557,2.055c.1.332.852,2.334,1.044,2.7" transform="translate(-54.012 -7.449)"/>
      <path id="Path_18" data-name="Path 18" d="M122.115,15.376a4.494,4.494,0,0,0-.053.835,2.722,2.722,0,0,0,2.472,3,2.359,2.359,0,0,0,2.107-1.184.141.141,0,0,1,.156-.087l.227.123c.052.017.086.069,0,.26a3.141,3.141,0,0,1-2.769,1.9,3.181,3.181,0,0,1-2.733-1.237,4.14,4.14,0,0,1-.766-2.75,3.919,3.919,0,0,1,1.1-2.768,3.227,3.227,0,0,1,2.491-.923,2.6,2.6,0,0,1,2.56,2.56c0,.243-.21.278-.488.278h-4.3Zm2.768-.521c.33,0,.471-.086.471-.245,0-.4-.21-1.548-1.341-1.548-.767,0-1.5.5-1.829,1.793Z" transform="translate(-55.46 -7.419)"/>
      <path id="Path_19" data-name="Path 19" d="M129.776,15.357c0-.888-.139-1.062-.627-1.323l-.332-.174c-.1-.034-.139-.052-.139-.122v-.106c0-.069.034-.1.139-.155l1.724-.888a.53.53,0,0,1,.243-.07c.1,0,.123.1.123.209l.087,1.2h.07a2.969,2.969,0,0,1,2.09-1.514.786.786,0,0,1,.887.767.84.84,0,0,1-.731.852,1.119,1.119,0,0,1-.5-.139,1.133,1.133,0,0,0-.575-.139,1.234,1.234,0,0,0-1.027.73,1.859,1.859,0,0,0-.175.558V18.7c0,.538.123.714.489.714h.817c.106,0,.123.052.123.156v.313c0,.106-.017.157-.087.157-.1,0-.906-.052-1.845-.052-1.08,0-1.811.052-1.915.052-.07,0-.1-.035-.1-.175v-.3c0-.123.035-.156.191-.156h.68c.262,0,.383-.1.383-.331.018-.574.018-1.184.018-2.089V15.357Z" transform="translate(-56.703 -7.4)"/>
      <path id="Path_20" data-name="Path 20" d="M135.53,19.712c-.086-.052-.086-.157-.1-.244l-.3-1.654c-.017-.086.035-.122.1-.14l.227-.05c.07-.018.122.017.156.1l.437.853c.348.644.591,1.08,1.514,1.08a1.269,1.269,0,0,0,1.376-1.185c0-.783-.384-1.237-1.688-1.6-1.028-.3-2.055-.835-2.055-2.212a2.3,2.3,0,0,1,2.439-2.123,3.241,3.241,0,0,1,1.6.366c.261.122.295.209.312.313l.262,1.219a.164.164,0,0,1-.122.158l-.211.068c-.069.018-.1,0-.155-.087l-.593-.8a1.328,1.328,0,0,0-1.219-.679,1.227,1.227,0,0,0-1.34,1.149c0,1.009.818,1.2,1.671,1.445,1.271.366,2.073.889,2.09,2.229a2.4,2.4,0,0,1-2.646,2.3,3.294,3.294,0,0,1-1.759-.505" transform="translate(-57.766 -7.42)"/>
      <path id="Path_21" data-name="Path 21" d="M142.675,14.212c0-.59-.1-.9-.975-1.043-.122-.018-.156-.053-.156-.123V12.89c0-.054.035-.086.122-.122a14.305,14.305,0,0,0,1.881-.853.715.715,0,0,1,.33-.1c.087,0,.1.086.087.209-.034.3-.034,1.393-.034,2.838v1.9c0,.678,0,1.305.017,1.5.034.332.086.454.278.454h.8c.139,0,.173.052.173.156v.3c0,.123-.034.175-.155.175-.139,0-.941-.052-1.672-.052-1.01,0-1.689.052-1.881.052-.087,0-.14-.035-.14-.14v-.348c0-.1.052-.139.174-.139h.853c.191,0,.262-.07.279-.349.018-.523.018-1.061.018-1.583Zm-.783-5.31A.966.966,0,0,1,142.955,8a.864.864,0,0,1,.9.853.945.945,0,0,1-1.01.958.988.988,0,0,1-.957-.906" transform="translate(-58.764 -6.691)"/>
      <path id="Path_22" data-name="Path 22" d="M148.125,17.493c0,1.305.592,1.531.905,1.531a2.516,2.516,0,0,0,1.149-.226.141.141,0,0,1,.208.034l.087.159a.138.138,0,0,1-.034.191,2.922,2.922,0,0,1-1.933.7,1.779,1.779,0,0,1-1.688-1.478c0-.714.052-2.246.052-2.49v-.385c0-.314.017-1.48.034-2.212h-1.062c-.156,0-.261-.069-.261-.209s.1-.191.313-.312a7.816,7.816,0,0,0,1.986-2.194.232.232,0,0,1,.243-.173c.14,0,.175.122.175.26l-.088,1.724h2.421c.1,0,.156.087.122.156l-.175.61c-.018.086-.052.139-.156.139h-2.247c-.034.8-.052,1.636-.052,2.439v1.74Z" transform="translate(-59.443 -7.08)"/>
      <path id="Path_23" data-name="Path 23" d="M152.114,23.887a.771.771,0,0,1,.8-.68,3.032,3.032,0,0,1,.8.191.415.415,0,0,0,.364-.1,21.162,21.162,0,0,0,1.393-2.978c-.086-.436-1.933-5.867-2.072-6.234-.208-.436-.366-.733-.818-.733h-.453c-.122,0-.139-.05-.139-.154v-.35c0-.069.018-.121.139-.121.157,0,.574.052,1.6.052.887,0,1.427-.052,1.619-.052.139,0,.156.052.156.121v.367c0,.087-.018.137-.1.137h-.331c-.191,0-.261.123-.227.385.054.384,1.237,4.213,1.429,4.6h.069c.175-.279,1.689-3.881,1.793-4.318s-.034-.664-.3-.664h-.278c-.106,0-.123-.05-.123-.137v-.348c0-.087.017-.139.1-.139.227,0,.592.052,1.429.052.47,0,.87-.052,1.061-.052.1,0,.1.071.1.139v.33c0,.1,0,.154-.086.154h-.279a.781.781,0,0,0-.61.317,59.329,59.329,0,0,0-2.734,5.849c-.852,1.933-1.53,3.552-1.844,4.126a1.631,1.631,0,0,1-1.481,1.133c-.663,0-.995-.364-.995-.887" transform="translate(-60.472 -7.449)"/>
      <path id="Path_24" data-name="Path 24" d="M165.739,19.015a3.683,3.683,0,0,1-.958-2.837,3.7,3.7,0,0,1,1.5-2.8,3.768,3.768,0,0,1,2.333-.836,3.685,3.685,0,0,1,2.438,1.009,3.873,3.873,0,0,1,1.183,2.838,3.974,3.974,0,0,1-3.848,3.829,3.505,3.505,0,0,1-2.645-1.2m5.031-2.8c0-1.933-1.41-3.152-2.3-3.152a1.679,1.679,0,0,0-1.341.557,3.417,3.417,0,0,0-.923,2.734,3.76,3.76,0,0,0,.662,2.438,1.928,1.928,0,0,0,1.724.906c1.323,0,2.176-1.619,2.176-3.482" transform="translate(-62.524 -7.419)"/>
      <path id="Path_25" data-name="Path 25" d="M175.5,12.605h-1.2c-.086,0-.12-.035-.086-.191l.07-.523c.017-.1.071-.122.209-.122h1.01v-.33a5.2,5.2,0,0,1,1.167-3.62,3.738,3.738,0,0,1,2.854-1.377c.82,0,1.585.313,1.585.974a.834.834,0,0,1-.732.75,1.117,1.117,0,0,1-.488-.1,1.868,1.868,0,0,1-.418-.4.957.957,0,0,0-.8-.4,1.551,1.551,0,0,0-1.306.609c-.643.817-.609,2.333-.609,3.552v.348h2.107c.122,0,.139.1.122.174l-.087.575c-.018.068-.086.087-.227.087h-1.916v1.55c0,2.054,0,3.656.018,3.846.034.3.086.454.453.454h.992c.156,0,.191.034.191.139v.279c0,.139-.035.209-.122.209-.1,0-.749-.052-2.09-.052-.958,0-1.845.052-1.986.052-.1,0-.139-.035-.139-.122v-.384c0-.088.034-.123.174-.123h.835c.332,0,.4-.209.418-.61v-5.24Z" transform="translate(-64.014 -6.441)"/>
      <path id="Path_26" data-name="Path 26" d="M45.771,37.848c-.208-.156-.313-.209-.4-.209-.1,0-.175.121-.279.295-.1.194-.191.211-.314.211-.1,0-.191-.088-.157-.279.07-.436.244-2.647.3-3.15.017-.1.052-.1.122-.1l.261.017c.07,0,.1.035.1.14a3.418,3.418,0,0,0,.627,2.018,2.914,2.914,0,0,0,2.437,1.29,2.225,2.225,0,0,0,2.368-2.211c0-1.794-1.288-2.457-2.681-2.943a6.766,6.766,0,0,1-2.541-1.41,3.4,3.4,0,0,1-.871-2.542,3.284,3.284,0,0,1,1.079-2.228,3.465,3.465,0,0,1,2.438-.835,5.009,5.009,0,0,1,2.054.434c.157.087.243.071.331-.017l.226-.208a.332.332,0,0,1,.226-.1c.086,0,.139.138.139.294,0,.61.227,2.386.245,2.77,0,.086-.018.121-.087.138l-.21.052a.073.073,0,0,1-.1-.052A4.233,4.233,0,0,0,50,27.282a2.425,2.425,0,0,0-1.9-.749A1.972,1.972,0,0,0,46,28.569a2.115,2.115,0,0,0,.54,1.515,5.47,5.47,0,0,0,1.985,1.045,5.58,5.58,0,0,1,2.8,1.444,3.4,3.4,0,0,1,.767,2.368,3.515,3.515,0,0,1-3.552,3.814,4.287,4.287,0,0,1-2.767-.908" transform="translate(-43.242 -9.564)"/>
      <path id="Path_27" data-name="Path 27" d="M55.364,38.477a3.888,3.888,0,0,1,.54-5.64A3.761,3.761,0,0,1,58.237,32a3.682,3.682,0,0,1,2.438,1.01,3.861,3.861,0,0,1,1.184,2.838,3.974,3.974,0,0,1-3.848,3.83,3.505,3.505,0,0,1-2.646-1.2m5.031-2.8c0-1.933-1.41-3.152-2.3-3.152a1.684,1.684,0,0,0-1.341.557,3.416,3.416,0,0,0-.923,2.734,3.75,3.75,0,0,0,.662,2.437,1.928,1.928,0,0,0,1.724.905c1.322,0,2.175-1.619,2.175-3.482" transform="translate(-44.813 -10.542)"/>
      <path id="Path_28" data-name="Path 28" d="M70.516,35.965c0,.836,0,1.689.035,2.055.051.539.243.609.453.609a2.571,2.571,0,0,0,.574-.052c.14-.034.192,0,.209.07l.053.227c.018.1-.017.14-.087.157l-1.829.609a1.017,1.017,0,0,1-.348.071c-.071,0-.139-.035-.157-.21l-.139-1.01h-.034a3.183,3.183,0,0,1-2.368,1.221,1.821,1.821,0,0,1-1.636-.8c-.714-.922-.678-1.5-.678-3.412v-2.02c-.018-.486-.261-.609-.662-.662-.3-.017-.383-.035-.383-.123v-.313c0-.1.035-.139.191-.139h1.55A.872.872,0,0,0,65.5,32.2c.069,0,.139-.017.191-.017a.179.179,0,0,1,.191.209c-.017.157-.07.974-.07,2v1.237a4.425,4.425,0,0,0,.383,2.612,1.458,1.458,0,0,0,1.393.661,2.4,2.4,0,0,0,1.5-.87.948.948,0,0,0,.175-.471V33.424c-.034-.489-.313-.575-.749-.61-.3,0-.383-.035-.383-.123v-.3c0-.14.035-.157.209-.157h1.619a1.321,1.321,0,0,0,.3-.035c.086,0,.157-.017.209-.017a.151.151,0,0,1,.157.173,15.353,15.353,0,0,0-.1,2.317Z" transform="translate(-46.275 -10.572)"/>
      <path id="Path_29" data-name="Path 29" d="M75.918,36.955c0,1.305.592,1.531.906,1.531a2.5,2.5,0,0,0,1.149-.226.143.143,0,0,1,.209.034l.086.156a.141.141,0,0,1-.034.192,2.926,2.926,0,0,1-1.933.7,1.779,1.779,0,0,1-1.689-1.481c0-.714.052-2.246.052-2.489v-.384c0-.313.018-1.479.035-2.211H73.637c-.157,0-.26-.07-.26-.209s.1-.191.313-.313a7.811,7.811,0,0,0,1.985-2.193.234.234,0,0,1,.243-.174c.139,0,.175.122.175.261l-.087,1.723h2.42c.1,0,.157.087.122.157l-.174.61c-.018.087-.053.139-.158.139H75.97c-.034.8-.052,1.637-.052,2.438Z" transform="translate(-47.857 -10.203)"/>
      <path id="Path_30" data-name="Path 30" d="M80.92,29c0-1.064-.21-1.253-.835-1.464l-.3-.1c-.1-.035-.122-.052-.122-.1v-.158c0-.069.052-.086.209-.173l1.811-.959a.92.92,0,0,1,.4-.139c.1,0,.174.139.139.434s-.052,3.831-.052,4.7v1.112h.086a3.325,3.325,0,0,1,2.386-1.131,2.274,2.274,0,0,1,1.723.7,3.074,3.074,0,0,1,.749,2.559v.992c0,.976.035,2.055.035,2.386,0,.208.279.261.644.261h.3c.139,0,.191.034.191.156v.261c0,.139-.035.209-.139.209-.123,0-.68-.052-1.672-.052-.853,0-1.479.052-1.637.052-.121,0-.156-.052-.156-.191v-.294c0-.087.018-.139.122-.139h.4c.3,0,.644-.035.662-.331.018-.244,0-1.166,0-1.723v-1.41a2.731,2.731,0,0,0-.575-2.143,1.6,1.6,0,0,0-1.148-.487,2.127,2.127,0,0,0-1.619.73,1.515,1.515,0,0,0-.348.854v3.8c0,.557.052.714.383.714h.522c.122,0,.192.034.192.139v.295c0,.122-.034.191-.139.191-.139,0-.853-.052-1.654-.052-.871,0-1.532.052-1.688.052-.071,0-.122-.052-.122-.174v-.313c0-.123.07-.139.261-.139h.365c.278,0,.539-.071.575-.28.051-.33.051-2.246.051-3.378V29Z" transform="translate(-48.867 -9.564)"/>
      <path id="Path_31" data-name="Path 31" d="M91.456,34.838a4.514,4.514,0,0,0-.053.837,2.721,2.721,0,0,0,2.473,3,2.359,2.359,0,0,0,2.106-1.185.142.142,0,0,1,.157-.087l.226.123c.053.017.088.069,0,.259a3.136,3.136,0,0,1-2.768,1.9,3.187,3.187,0,0,1-2.734-1.236,4.144,4.144,0,0,1-.766-2.75,3.921,3.921,0,0,1,1.1-2.77A3.226,3.226,0,0,1,93.684,32a2.6,2.6,0,0,1,2.56,2.559c0,.243-.21.278-.488.278h-4.3Zm2.769-.521c.331,0,.47-.087.47-.243,0-.4-.209-1.55-1.341-1.55-.766,0-1.5.5-1.829,1.793Z" transform="translate(-50.54 -10.543)"/>
      <path id="Path_32" data-name="Path 32" d="M99.264,34.819c0-.887-.139-1.062-.628-1.323l-.331-.175c-.1-.034-.139-.051-.139-.122v-.1c0-.071.034-.1.139-.156l1.724-.888a.522.522,0,0,1,.243-.071c.1,0,.123.1.123.208l.086,1.2h.07a2.968,2.968,0,0,1,2.09-1.515.787.787,0,0,1,.887.767.841.841,0,0,1-.731.853,1.143,1.143,0,0,1-.5-.139,1.128,1.128,0,0,0-.575-.139,1.232,1.232,0,0,0-1.027.731,1.882,1.882,0,0,0-.175.557v3.658c0,.539.122.712.487.712h.819c.1,0,.123.054.123.157v.313c0,.1-.018.156-.086.156-.106,0-.907-.052-1.847-.052-1.08,0-1.811.052-1.914.052-.07,0-.106-.034-.106-.175v-.295c0-.122.036-.157.192-.157h.679c.262,0,.384-.1.384-.33.018-.574.018-1.184.018-2.09V34.819Z" transform="translate(-51.807 -10.522)"/>
      <path id="Path_33" data-name="Path 33" d="M112.1,38.529c0,.28.156.367.382.367h.557c.158,0,.191.052.191.156v.278c0,.122-.034.191-.139.191-.123,0-.662-.052-1.655-.052-.887,0-1.445.052-1.566.052-.1,0-.139-.052-.139-.191v-.278c0-.122.051-.156.226-.156h.5c.192,0,.331-.086.348-.4.018-.453.036-1.01.036-1.462v-2.3c0-.7,0-1.2-.505-1.567a1.913,1.913,0,0,0-1.27-.312,2.038,2.038,0,0,0-1.41.678,1.7,1.7,0,0,0-.4,1.185v3.6c0,.469.052.575.418.575h.436c.139,0,.174.052.174.175v.3c0,.1-.034.156-.122.156-.12,0-.591-.052-1.515-.052-.887,0-1.444.052-1.549.052-.086,0-.122-.052-.122-.156v-.314c0-.1.035-.156.174-.156h.505c.226,0,.348-.053.348-.348V34.474a1.075,1.075,0,0,0-.714-1.028l-.139-.071c-.121-.052-.139-.1-.139-.156v-.087c0-.088.069-.139.156-.173l1.5-.838a.918.918,0,0,1,.313-.122c.086,0,.123.071.139.208l.121,1.062h.034A3.494,3.494,0,0,1,109.658,32a2.685,2.685,0,0,1,1.479.384,2.534,2.534,0,0,1,.958,1.654Z" transform="translate(-52.928 -10.542)"/>
      <path id="Path_34" data-name="Path 34" d="M121.044,37.152a7,7,0,0,1-1.862-4.875,6.624,6.624,0,0,1,1.774-4.612A6.061,6.061,0,0,1,125.31,25.9a7.239,7.239,0,0,1,3.517.957c.227.14.312.123.348,0l.139-.5c.034-.106.071-.106.226-.106s.191.035.191.28c0,.33.348,2.89.436,3.377.018.088,0,.157-.07.175l-.261.069c-.086.018-.122,0-.174-.138a6.726,6.726,0,0,0-1.358-2.161,4.037,4.037,0,0,0-3.03-1.339c-3.116,0-4.369,2.767-4.352,5.31a6.977,6.977,0,0,0,1.672,4.475,3.868,3.868,0,0,0,3.342,1.462,5.321,5.321,0,0,0,4.3-2.211c.052-.087.086-.1.139-.053l.227.175c.051.036.086.071.034.157a6.234,6.234,0,0,1-5.188,2.926,6.067,6.067,0,0,1-4.407-1.6" transform="translate(-55.207 -9.564)"/>
      <path id="Path_35" data-name="Path 35" d="M138.538,37.4c0,.993.208,1.305.522,1.305a.8.8,0,0,0,.609-.26c.071-.088.1-.123.175-.07l.174.139c.054.052.087.14-.018.313a1.437,1.437,0,0,1-1.358.853,1.3,1.3,0,0,1-1.236-1.166h-.034a3.759,3.759,0,0,1-1.724,1.061,3.258,3.258,0,0,1-1.027.1c-.42,0-1.045-.348-1.045-1.446,0-.8.366-1.5,1.741-2.106a11.563,11.563,0,0,0,1.967-1.008V34a2.016,2.016,0,0,0-.243-.974A1.319,1.319,0,0,0,136,32.644a1.94,1.94,0,0,0-1.13.368c-.243.225-.087.487-.087.8,0,.61-.21.993-.924.993-.279,0-.417-.157-.417-.557a2.188,2.188,0,0,1,1.2-1.636A3.834,3.834,0,0,1,136.762,32a1.792,1.792,0,0,1,1.394.469,1.54,1.54,0,0,1,.382,1.236V37.4Zm-1.271-1.758c-.627.471-2.332.818-2.332,2.262a.857.857,0,0,0,.905.959c.5,0,1.427-.61,1.427-1.08Z" transform="translate(-57.494 -10.542)"/>
      <path id="Path_36" data-name="Path 36" d="M144.223,33.3c0,.905,0,3.534.018,4.073.018.3.086.541.452.541h.783c.157,0,.191.052.191.156v.3c0,.1-.035.174-.1.174-.123,0-.889-.052-1.968-.052-1.114,0-1.811.052-1.968.052-.086,0-.121-.071-.121-.174v-.3c0-.122.034-.156.225-.156h.835c.192,0,.367-.123.383-.437.018-.54.018-3.534.018-4.543v-1.1c0-1.237-.018-2.82-.052-3.274a1.044,1.044,0,0,0-.87-1.044L141.7,27.4c-.086-.033-.1-.05-.1-.087v-.139c0-.052.052-.086.157-.123a15.721,15.721,0,0,0,2.036-1.01.643.643,0,0,1,.366-.139c.123,0,.157.088.14.313-.018.958-.07,4.579-.07,5.537V33.3Z" transform="translate(-58.789 -9.564)"/>
      <path id="Path_37" data-name="Path 37" d="M148.262,33.675c0-.593-.1-.906-.976-1.045-.122-.018-.156-.051-.156-.122v-.157c0-.052.034-.087.122-.121a14.528,14.528,0,0,0,1.88-.854.715.715,0,0,1,.33-.1c.088,0,.106.086.088.207-.034.3-.034,1.394-.034,2.839v1.9c0,.678,0,1.305.017,1.5.036.332.086.453.279.453h.8c.138,0,.172.054.172.157v.3c0,.123-.034.174-.155.174-.139,0-.941-.052-1.672-.052-1.01,0-1.69.052-1.881.052-.086,0-.139-.034-.139-.139V38.3c0-.1.054-.139.175-.139h.852c.191,0,.262-.069.278-.348.018-.523.018-1.062.018-1.585V33.675Zm-.783-5.311a.965.965,0,0,1,1.062-.9.864.864,0,0,1,.905.853.946.946,0,0,1-1.01.958.991.991,0,0,1-.957-.907" transform="translate(-59.661 -9.814)"/>
      <path id="Path_38" data-name="Path 38" d="M153.48,32.067h-1.2c-.086,0-.122-.034-.086-.191l.07-.524c.017-.1.069-.121.208-.121h1.01V30.9a5.214,5.214,0,0,1,1.166-3.621A3.74,3.74,0,0,1,157.5,25.9c.818,0,1.584.313,1.584.974a.832.832,0,0,1-.731.75,1.109,1.109,0,0,1-.488-.1,1.848,1.848,0,0,1-.418-.4.955.955,0,0,0-.8-.4,1.55,1.55,0,0,0-1.306.61c-.643.819-.609,2.333-.609,3.551v.348h2.107c.122,0,.14.1.122.174l-.086.575c-.018.07-.087.086-.228.086h-1.916v1.551c0,2.054,0,3.656.018,3.848.034.3.086.453.453.453h.992c.156,0,.191.034.191.139v.279c0,.139-.034.209-.121.209-.106,0-.749-.052-2.09-.052-.957,0-1.846.052-1.984.052-.106,0-.14-.034-.14-.122v-.384c0-.086.034-.121.175-.121h.836c.331,0,.4-.209.418-.61v-5.24Z" transform="translate(-60.481 -9.564)"/>
      <path id="Path_39" data-name="Path 39" d="M158.491,38.477a3.887,3.887,0,0,1,.539-5.64A3.762,3.762,0,0,1,161.362,32a3.682,3.682,0,0,1,2.438,1.01,3.864,3.864,0,0,1,1.184,2.838,3.974,3.974,0,0,1-3.848,3.83,3.5,3.5,0,0,1-2.645-1.2m5.031-2.8c0-1.933-1.41-3.152-2.3-3.152a1.683,1.683,0,0,0-1.341.557,3.419,3.419,0,0,0-.924,2.734,3.75,3.75,0,0,0,.662,2.437,1.925,1.925,0,0,0,1.724.905c1.324,0,2.176-1.619,2.176-3.482" transform="translate(-61.361 -10.542)"/>
      <path id="Path_40" data-name="Path 40" d="M167.82,34.819c0-.887-.139-1.062-.628-1.323l-.33-.175c-.1-.034-.139-.051-.139-.122v-.1c0-.071.034-.1.139-.156l1.723-.888a.517.517,0,0,1,.243-.071c.1,0,.122.1.122.208l.087,1.2h.069a2.968,2.968,0,0,1,2.09-1.515.787.787,0,0,1,.887.767.841.841,0,0,1-.73.853,1.138,1.138,0,0,1-.505-.139,1.127,1.127,0,0,0-.574-.139,1.234,1.234,0,0,0-1.027.731,1.918,1.918,0,0,0-.175.557v3.658c0,.539.122.712.488.712h.819c.1,0,.122.054.122.157v.313c0,.1-.017.156-.087.156-.1,0-.905-.052-1.845-.052-1.08,0-1.81.052-1.915.052-.07,0-.1-.034-.1-.175v-.295c0-.122.034-.157.191-.157h.679c.262,0,.384-.1.384-.33.018-.574.018-1.184.018-2.09V34.819Z" transform="translate(-62.807 -10.522)"/>
      <path id="Path_41" data-name="Path 41" d="M180.617,38.529c0,.28.157.367.384.367h.557c.156,0,.191.052.191.156v.278c0,.122-.036.191-.14.191-.121,0-.66-.052-1.654-.052-.888,0-1.445.052-1.567.052-.1,0-.139-.052-.139-.191v-.278c0-.122.051-.156.226-.156h.5c.191,0,.33-.086.348-.4.017-.453.034-1.01.034-1.462v-2.3c0-.7,0-1.2-.5-1.567a1.915,1.915,0,0,0-1.271-.312,2.042,2.042,0,0,0-1.41.678,1.713,1.713,0,0,0-.4,1.185v3.6c0,.469.054.575.419.575h.434c.139,0,.175.052.175.175v.3c0,.1-.034.156-.122.156-.123,0-.593-.052-1.516-.052-.888,0-1.445.052-1.549.052-.086,0-.123-.052-.123-.156v-.314c0-.1.035-.156.175-.156h.5c.227,0,.349-.053.349-.348V34.474a1.074,1.074,0,0,0-.714-1.028l-.139-.071c-.123-.052-.139-.1-.139-.156v-.087c0-.088.07-.139.156-.173l1.5-.837A.9.9,0,0,1,175.5,32c.086,0,.121.071.138.208l.123,1.062h.034A3.492,3.492,0,0,1,178.179,32a2.69,2.69,0,0,1,1.48.384,2.535,2.535,0,0,1,.956,1.654v4.491Z" transform="translate(-63.922 -10.542)"/>
      <path id="Path_42" data-name="Path 42" d="M185.168,33.675c0-.593-.1-.906-.976-1.045-.121-.018-.155-.051-.155-.122v-.157c0-.052.034-.087.122-.121a14.586,14.586,0,0,0,1.881-.854.712.712,0,0,1,.331-.1c.086,0,.1.086.086.207-.034.3-.034,1.394-.034,2.839v1.9c0,.678,0,1.305.018,1.5.034.332.086.453.278.453h.8c.14,0,.174.054.174.157v.3c0,.123-.033.174-.155.174-.14,0-.941-.052-1.672-.052-1.009,0-1.689.052-1.881.052-.086,0-.139-.034-.139-.139V38.3c0-.1.053-.139.175-.139h.852c.191,0,.262-.069.279-.348.017-.523.017-1.062.017-1.585V33.675Zm-.782-5.311a.965.965,0,0,1,1.062-.9.865.865,0,0,1,.906.853.946.946,0,0,1-1.011.958.99.99,0,0,1-.957-.907" transform="translate(-65.583 -9.814)"/>
      <path id="Path_43" data-name="Path 43" d="M194.008,37.4c0,.993.209,1.305.521,1.305a.8.8,0,0,0,.61-.26c.07-.088.1-.123.175-.07l.172.139c.052.052.088.14-.017.313a1.436,1.436,0,0,1-1.358.853,1.3,1.3,0,0,1-1.237-1.166h-.034a3.742,3.742,0,0,1-1.724,1.061,3.255,3.255,0,0,1-1.027.1c-.418,0-1.045-.348-1.045-1.446,0-.8.366-1.5,1.741-2.106a11.6,11.6,0,0,0,1.967-1.008V34a2.017,2.017,0,0,0-.244-.974,1.319,1.319,0,0,0-1.044-.385,1.943,1.943,0,0,0-1.132.368c-.243.225-.087.487-.087.8,0,.61-.208.993-.922.993-.279,0-.419-.157-.419-.557a2.191,2.191,0,0,1,1.2-1.636A3.836,3.836,0,0,1,192.232,32a1.79,1.79,0,0,1,1.393.469,1.538,1.538,0,0,1,.383,1.236V37.4Zm-1.271-1.758c-.627.471-2.333.818-2.333,2.262a.857.857,0,0,0,.906.959c.5,0,1.427-.61,1.427-1.08v-2.14Z" transform="translate(-66.395 -10.542)"/>
    </g>
  </g>
</svg>
